<svg xmlns="http://www.w3.org/2000/svg" width="886.6" height="979.9" viewBox="0 0 886.6 979.9">
  <g id="delete" transform="translate(-56.7 -10)">
    <path id="Path_1728" data-name="Path 1728" d="M500,850a23.259,23.259,0,0,0,23.3-23.3v-490a23.3,23.3,0,1,0-46.6,0v490A23.323,23.323,0,0,0,500,850Zm-116.7,0a23.259,23.259,0,0,0,23.3-23.3l-23.3-490a23.3,23.3,0,0,0-46.6,0l23.3,490A23.323,23.323,0,0,0,383.3,850ZM920,173.3H710v-70A93.336,93.336,0,0,0,616.7,10H383.3A93.336,93.336,0,0,0,290,103.3v70H80a23.3,23.3,0,0,0,0,46.6h97.9l65.5,676.7a93.272,93.272,0,0,0,93.3,93.3H663.4a93.272,93.272,0,0,0,93.3-93.3L822.1,220H920a23.35,23.35,0,0,0,0-46.7Zm-583.3-70a46.689,46.689,0,0,1,46.7-46.7H616.7a46.689,46.689,0,0,1,46.7,46.7v70H336.7ZM710,896.7a46.689,46.689,0,0,1-46.7,46.7H336.7A46.689,46.689,0,0,1,290,896.7L224.5,220h551ZM616.7,850A23.259,23.259,0,0,0,640,826.7l23.3-490a23.3,23.3,0,0,0-46.6,0l-23.3,490A23.259,23.259,0,0,0,616.7,850Z" fill="#fff"/>
  </g>
</svg>
